<svg width="32" height="32" viewBox="0 0 32 32" fill="none" xmlns="http://www.w3.org/2000/svg">
<g clip-path="url(#clip0_364_6069)">
<path opacity="0.994" fill-rule="evenodd" clip-rule="evenodd" d="M8.15627 -0.03125C8.44795 -0.03125 8.73958 -0.03125 9.03127 -0.03125C9.35445 0.105396 9.59408 0.334563 9.75002 0.65625C9.83477 1.13095 9.86602 1.61011 9.84377 2.09375C9.87077 3.01408 9.83952 3.93075 9.75002 4.84375C9.31695 5.66858 8.68152 5.86649 7.84377 5.4375C7.66045 5.29598 7.52502 5.1189 7.43752 4.90625C7.34683 3.97323 7.31558 3.03573 7.34377 2.09375C7.33339 1.65576 7.34377 1.21826 7.37502 0.78125C7.5237 0.393129 7.78414 0.122295 8.15627 -0.03125Z" fill="#222F4D"/>
<path opacity="0.992" fill-rule="evenodd" clip-rule="evenodd" d="M22.9687 -0.03125C23.2187 -0.03125 23.4687 -0.03125 23.7187 -0.03125C24.0445 0.117016 24.3049 0.346182 24.5 0.65625C24.5872 1.13003 24.6185 1.60919 24.5937 2.09375C24.6042 2.969 24.5937 3.844 24.5625 4.71875C24.2904 5.46444 23.7592 5.76652 22.9687 5.625C22.5833 5.48958 22.3229 5.22917 22.1875 4.84375C22.098 3.93075 22.0667 3.01408 22.0937 2.09375C22.0693 1.62994 22.1005 1.17161 22.1875 0.71875C22.359 0.37004 22.6194 0.12004 22.9687 -0.03125Z" fill="#212F4D"/>
<path fill-rule="evenodd" clip-rule="evenodd" d="M7.34375 2.09375C7.31556 3.03573 7.34681 3.97323 7.4375 4.90625C7.525 5.1189 7.66044 5.29598 7.84375 5.4375C8.6815 5.8665 9.31694 5.66858 9.75 4.84375C9.8395 3.93075 9.87075 3.01408 9.84375 2.09375C13.9271 2.09375 18.0104 2.09375 22.0938 2.09375C22.0667 3.01408 22.098 3.93075 22.1875 4.84375C22.3229 5.22917 22.5833 5.48958 22.9688 5.625C23.7592 5.76652 24.2904 5.46444 24.5625 4.71875C24.5938 3.844 24.6042 2.969 24.5938 2.09375C26.4922 2.06495 28.388 2.0962 30.2812 2.1875C31.1513 2.46371 31.7138 3.03663 31.9688 3.90625C31.9688 5.30208 31.9688 6.69794 31.9688 8.09375C21.3021 8.09375 10.6354 8.09375 -0.03125 8.09375C-0.03125 6.69794 -0.03125 5.30208 -0.03125 3.90625C0.262344 2.93579 0.908175 2.34204 1.90625 2.125C3.71863 2.09375 5.53113 2.08334 7.34375 2.09375Z" fill="#FE4849"/>
<path fill-rule="evenodd" clip-rule="evenodd" d="M-0.03125 8.09375C10.6354 8.09375 21.3021 8.09375 31.9688 8.09375C31.9688 8.88544 31.9688 9.67706 31.9688 10.4688C21.3021 10.4688 10.6354 10.4688 -0.03125 10.4688C-0.03125 9.67706 -0.03125 8.88544 -0.03125 8.09375Z" fill="#F20151"/>
<path fill-rule="evenodd" clip-rule="evenodd" d="M-0.03125 10.4688C10.6354 10.4688 21.3021 10.4688 31.9688 10.4688C31.9688 16.8021 31.9688 23.1354 31.9688 29.4688C21.3021 29.4688 10.6354 29.4688 -0.03125 29.4688C-0.03125 23.1354 -0.03125 16.8021 -0.03125 10.4688Z" fill="#ECF4FE"/>
<path fill-rule="evenodd" clip-rule="evenodd" d="M15.7813 13.4687C16.0371 13.4191 16.2351 13.5024 16.375 13.7187C16.9854 15.0126 17.6209 16.2938 18.2813 17.5625C19.7281 17.8452 21.1864 18.0744 22.6563 18.25C23.0536 18.4254 23.1265 18.6858 22.875 19.0312C21.8318 20.012 20.8109 21.012 19.8125 22.0312C20.0036 23.4699 20.2224 24.9074 20.4688 26.3437C20.4721 26.7259 20.2846 26.903 19.9063 26.875C18.613 26.1659 17.3005 25.4887 15.9688 24.8437C14.6389 25.4878 13.3264 26.1649 12.0313 26.875C11.6529 26.903 11.4654 26.7259 11.4688 26.3437C11.7151 24.9074 11.9339 23.4699 12.125 22.0312C11.0625 20.9687 10 19.9062 8.9375 18.8437C8.88713 18.5587 9.00169 18.3609 9.28125 18.25C10.7481 18.0613 12.2065 17.8321 13.6563 17.5625C14.3166 16.2938 14.9521 15.0126 15.5625 13.7187C15.6485 13.6434 15.7214 13.5601 15.7813 13.4687Z" fill="#FECE04"/>
<path fill-rule="evenodd" clip-rule="evenodd" d="M-0.03125 29.4688C10.6354 29.4688 21.3021 29.4688 31.9688 29.4688C31.9688 29.6979 31.9688 29.9271 31.9688 30.1562C31.6771 31.0729 31.0729 31.6771 30.1562 31.9688C20.6979 31.9688 11.2396 31.9688 1.78125 31.9688C0.864581 31.6771 0.260417 31.0729 -0.03125 30.1562C-0.03125 29.9271 -0.03125 29.6979 -0.03125 29.4688Z" fill="#D6E8FE"/>
</g>
<defs>
<clipPath id="clip0_364_6069">
<rect width="32" height="32" fill="white"/>
</clipPath>
</defs>
</svg>
