<svg width="32" height="32" viewBox="0 0 32 32" fill="none" xmlns="http://www.w3.org/2000/svg">
<g clip-path="url(#clip0_364_5955)">
<path opacity="0.999" fill-rule="evenodd" clip-rule="evenodd" d="M21.1562 0.40625C21.8903 3.10466 22.2236 5.85466 22.1562 8.65625C22.1354 8.73956 22.1146 8.82294 22.0938 8.90625C21.1863 10.8868 19.853 12.5223 18.0938 13.8125C17.506 14.1896 16.9018 14.5333 16.2812 14.8438C16.0243 14.33 15.6076 14.1321 15.0312 14.25C13.4301 14.8013 11.8259 15.343 10.2188 15.875C9.60987 16.2324 9.46406 16.722 9.78125 17.3438C9.00381 17.9604 8.56631 18.7729 8.46875 19.7812C8.64944 21.1604 9.42031 22.0251 10.7812 22.375C11.0175 22.4678 11.2466 22.4783 11.4688 22.4062C11.5576 22.9741 11.8909 23.2866 12.4688 23.3438C12.7957 23.3089 13.1082 23.2256 13.4062 23.0938C13.8062 24.2312 14.1812 25.377 14.5312 26.5312C10.3958 30.0718 5.72911 31.0093 0.53125 29.3438C0.493446 29.1796 0.462196 29.0129 0.4375 28.8438C0.395833 20.1562 0.395833 11.4688 0.4375 2.78125C0.669725 1.40319 1.47181 0.580273 2.84375 0.3125C8.82294 0.270833 14.8021 0.270833 20.7812 0.3125C20.9074 0.344036 21.0324 0.375286 21.1562 0.40625Z" fill="#CBDFF0"/>
<path opacity="0.995" fill-rule="evenodd" clip-rule="evenodd" d="M21.1562 0.40625C22.2861 0.8308 22.9423 1.6433 23.125 2.84375C23.1562 3.57262 23.1667 4.30179 23.1562 5.03125C22.673 5.66533 22.5897 6.35281 22.9062 7.09375C22.6562 7.61456 22.4062 8.13544 22.1562 8.65625C22.2236 5.85466 21.8903 3.10466 21.1562 0.40625Z" fill="#B8C9D8"/>
<path fill-rule="evenodd" clip-rule="evenodd" d="M4.09374 3.21875C6.15635 3.20834 8.21887 3.21875 10.2812 3.25C10.5354 3.48405 10.5146 3.69239 10.2187 3.875C8.17705 3.91667 6.13541 3.91667 4.09374 3.875C3.84432 3.64564 3.84432 3.42689 4.09374 3.21875Z" fill="#3A4B53"/>
<path fill-rule="evenodd" clip-rule="evenodd" d="M13.9688 3.53125C15.9479 3.53125 17.9271 3.53125 19.9062 3.53125C19.9062 5.82292 19.9062 8.11456 19.9062 10.4062C17.9271 10.4062 15.9479 10.4062 13.9688 10.4062C13.9688 8.11456 13.9688 5.82292 13.9688 3.53125Z" fill="#FEFEFE"/>
<path opacity="0.995" fill-rule="evenodd" clip-rule="evenodd" d="M27.8438 11.5937C28.3345 13.1599 28.845 14.7224 29.375 16.2812C29.399 16.316 29.4302 16.3368 29.4688 16.3437C30.106 18.3076 30.7623 20.2659 31.4375 22.2187C31.6593 23.4759 31.1385 24.1842 29.875 24.3437C28.9868 24.2992 28.4555 23.8409 28.2813 22.9687C26.5017 17.6717 24.7101 12.3801 22.9063 7.09375C22.5897 6.35281 22.673 5.66532 23.1563 5.03125C24.0505 4.39961 24.8735 4.48294 25.625 5.28125C26.396 7.37537 27.1356 9.47956 27.8438 11.5937Z" fill="#F9A529"/>
<path fill-rule="evenodd" clip-rule="evenodd" d="M4.03125 6.15625C6.11468 6.14583 8.198 6.15625 10.2812 6.1875C10.5312 6.375 10.5312 6.5625 10.2812 6.75C8.19793 6.79169 6.11458 6.79169 4.03125 6.75C3.868 6.55225 3.868 6.35431 4.03125 6.15625Z" fill="#36474F"/>
<path opacity="0.999" fill-rule="evenodd" clip-rule="evenodd" d="M22.9062 7.09375C24.7101 12.3801 26.5017 17.6718 28.2812 22.9688C27.7082 22.6719 27.1457 22.3594 26.5938 22.0312C25.1535 17.6269 23.6535 13.2519 22.0938 8.90625C22.1146 8.82294 22.1354 8.73956 22.1562 8.65625C22.4062 8.13544 22.6562 7.61456 22.9062 7.09375Z" fill="#C31856"/>
<path opacity="0.999" fill-rule="evenodd" clip-rule="evenodd" d="M22.0938 8.90625C23.6535 13.2519 25.1535 17.6269 26.5938 22.0312C25.5032 21.4663 24.3574 21.0496 23.1562 20.7812C22.4129 20.5704 21.6525 20.4871 20.875 20.5312C20.4688 20.5417 20.0625 20.5521 19.6562 20.5625C19.3915 20.5834 19.1415 20.6355 18.9062 20.7188C18.7154 20.7444 18.5279 20.7861 18.3438 20.8438C18.3015 20.7749 18.2599 20.7124 18.2188 20.6562C17.5855 18.7149 16.9397 16.7774 16.2812 14.8438C16.9018 14.5333 17.506 14.1896 18.0938 13.8125C19.853 12.5223 21.1863 10.8868 22.0938 8.90625Z" fill="#D71A60"/>
<path fill-rule="evenodd" clip-rule="evenodd" d="M4.09375 9.03126C6.13553 9.02082 8.17719 9.03126 10.2188 9.06251C10.5247 9.23895 10.5456 9.44732 10.2813 9.68751C8.19794 9.7292 6.11459 9.7292 4.03125 9.68751C3.85696 9.45157 3.87779 9.23282 4.09375 9.03126Z" fill="#3A4B53"/>
<path opacity="0.993" fill-rule="evenodd" clip-rule="evenodd" d="M28.7812 11.4687C29.2903 12.9126 29.8111 14.3501 30.3438 15.7812C30.0969 16.0302 29.8052 16.2177 29.4688 16.3437C29.4302 16.3368 29.3989 16.316 29.375 16.2812C28.8449 14.7224 28.3345 13.1599 27.8438 11.5937C28.1464 11.4976 28.4589 11.4559 28.7812 11.4687Z" fill="#324046"/>
<path opacity="0.973" fill-rule="evenodd" clip-rule="evenodd" d="M28.7812 11.4688C30.4514 11.7745 31.2118 12.7745 31.0625 14.4688C30.9511 14.9838 30.7115 15.4213 30.3438 15.7812C29.8111 14.3501 29.2903 12.9126 28.7812 11.4688Z" fill="#35464E"/>
<path fill-rule="evenodd" clip-rule="evenodd" d="M4.09374 11.9688C8.2813 11.9583 12.4688 11.9688 16.6562 12C16.9104 12.2341 16.8896 12.4424 16.5937 12.625C12.4271 12.6667 8.26043 12.6667 4.09374 12.625C3.84432 12.3956 3.84432 12.1769 4.09374 11.9688Z" fill="#3A4B53"/>
<path fill-rule="evenodd" clip-rule="evenodd" d="M16.2813 14.8438C16.9397 16.7774 17.5855 18.7149 18.2188 20.6563C18.2291 20.9794 18.1249 21.2606 17.9063 21.5C17.3679 21.7381 16.8263 21.9569 16.2813 22.1563C15.3145 22.4438 14.3562 22.7563 13.4063 23.0938C13.1082 23.2256 12.7957 23.3089 12.4688 23.3438C11.8909 23.2866 11.5576 22.9741 11.4688 22.4063C10.8936 20.7226 10.3311 19.0351 9.78126 17.3438C9.46407 16.722 9.60988 16.2324 10.2188 15.875C11.8259 15.343 13.4301 14.8013 15.0313 14.25C15.6076 14.1321 16.0243 14.33 16.2813 14.8438Z" fill="#FDFDFD"/>
<path fill-rule="evenodd" clip-rule="evenodd" d="M4.03125 14.9063C5.57305 14.8958 7.11475 14.9063 8.65625 14.9375C8.90625 15.125 8.90625 15.3125 8.65625 15.5C7.11456 15.5417 5.57292 15.5417 4.03125 15.5C3.868 15.3023 3.868 15.1043 4.03125 14.9063Z" fill="#36474F"/>
<path fill-rule="evenodd" clip-rule="evenodd" d="M14.5312 16.2188C14.9123 16.1414 15.0894 16.2873 15.0625 16.6563C15.0104 16.7083 14.9583 16.7604 14.9062 16.8125C13.9486 17.1456 12.9902 17.4789 12.0312 17.8125C11.6172 17.849 11.4817 17.6719 11.625 17.2813C11.7137 17.2213 11.8074 17.1692 11.9062 17.125C12.7937 16.8397 13.6687 16.5376 14.5312 16.2188Z" fill="#3B4B53"/>
<path fill-rule="evenodd" clip-rule="evenodd" d="M9.78125 17.3438C10.3311 19.0351 10.8936 20.7226 11.4688 22.4062C11.2466 22.4783 11.0175 22.4678 10.7812 22.375C9.42031 22.0251 8.64944 21.1604 8.46875 19.7812C8.56631 18.7729 9.00381 17.9604 9.78125 17.3438Z" fill="#D82062"/>
<path fill-rule="evenodd" clip-rule="evenodd" d="M4.09375 17.7813C5.03149 17.7708 5.96899 17.7813 6.90625 17.8125C7.21219 17.9889 7.23307 18.1973 6.96875 18.4375C5.98959 18.4792 5.01042 18.4792 4.03125 18.4375C3.85696 18.2016 3.87779 17.9828 4.09375 17.7813Z" fill="#3B4C54"/>
<path fill-rule="evenodd" clip-rule="evenodd" d="M15.1563 17.9687C15.6554 17.9374 15.7804 18.1353 15.5313 18.5625C14.483 18.9606 13.4205 19.2939 12.3438 19.5625C12.0795 19.3223 12.1003 19.1139 12.4063 18.9375C13.3314 18.6188 14.2481 18.2959 15.1563 17.9687Z" fill="#3A4A52"/>
<path fill-rule="evenodd" clip-rule="evenodd" d="M15.7813 19.7188C16.2341 19.7222 16.3591 19.9201 16.1563 20.3125C15.0905 20.7234 14.0072 21.0568 12.9063 21.3125C12.7396 21.125 12.7396 20.9375 12.9063 20.75C13.8684 20.3982 14.8267 20.0544 15.7813 19.7188Z" fill="#3A4A52"/>
<path opacity="0.999" fill-rule="evenodd" clip-rule="evenodd" d="M23.1562 20.7813C23.1667 23.4688 23.1562 26.1563 23.125 28.8438C22.9049 30.1679 22.1446 30.9908 20.8437 31.3125C19.9898 31.3438 19.1357 31.3542 18.2812 31.3438C18.7894 30.892 18.9664 30.3295 18.8125 29.6563C18.5871 28.9905 18.3683 28.3238 18.1562 27.6563C19.1389 27.1911 19.5242 26.4202 19.3125 25.3438C18.8492 24.3049 18.068 23.909 16.9687 24.1563C16.9164 24.1349 16.8955 24.0933 16.9062 24.0313C17.7421 23.0166 18.4712 21.9228 19.0937 20.75C19.0345 20.7198 18.972 20.7095 18.9062 20.7188C19.1415 20.6355 19.3915 20.5835 19.6562 20.5625C20.0625 20.5521 20.4687 20.5417 20.875 20.5313C21.6525 20.4871 22.4129 20.5705 23.1562 20.7813Z" fill="#B8C9D8"/>
<path fill-rule="evenodd" clip-rule="evenodd" d="M18.2188 20.6562C18.2599 20.7124 18.3015 20.7749 18.3438 20.8438C18.5279 20.7861 18.7154 20.7444 18.9062 20.7188C18.972 20.7094 19.0345 20.7198 19.0938 20.75C18.4712 21.9228 17.7421 23.0166 16.9062 24.0312C16.6857 23.4112 16.4773 22.7862 16.2812 22.1562C16.8263 21.9569 17.3679 21.7381 17.9062 21.5C18.1249 21.2606 18.2291 20.9794 18.2188 20.6562Z" fill="#CCDFF0"/>
<path fill-rule="evenodd" clip-rule="evenodd" d="M4.09374 20.7188C5.1981 20.7083 6.30224 20.7188 7.40624 20.75C7.73955 20.9583 7.73955 21.1667 7.40624 21.375C6.30205 21.4167 5.19791 21.4167 4.09374 21.375C3.84432 21.1456 3.84432 20.9269 4.09374 20.7188Z" fill="#3A4B53"/>
<path opacity="0.999" fill-rule="evenodd" clip-rule="evenodd" d="M16.2812 22.1562C16.4773 22.7862 16.6857 23.4112 16.9062 24.0312C16.8955 24.0933 16.9164 24.1349 16.9688 24.1562C17.3165 25.3454 17.7123 26.5121 18.1562 27.6562C18.3683 28.3238 18.5871 28.9904 18.8125 29.6562C18.9664 30.3295 18.7894 30.892 18.2812 31.3438C17.7782 31.6935 17.2366 31.7456 16.6562 31.5C16.5661 31.4764 16.5036 31.4244 16.4688 31.3438C16.2366 31.1412 16.0595 30.8912 15.9375 30.5938C15.4976 29.2218 15.0289 27.8676 14.5312 26.5312C14.1812 25.377 13.8062 24.2312 13.4062 23.0938C14.3562 22.7563 15.3145 22.4437 16.2812 22.1562Z" fill="#F9A62A"/>
<path fill-rule="evenodd" clip-rule="evenodd" d="M4.03125 23.6563C6.19801 23.6458 8.36468 23.6563 10.5312 23.6875C10.7536 23.8488 10.7744 24.0363 10.5937 24.25C8.40625 24.2917 6.21875 24.2917 4.03125 24.25C3.868 24.0523 3.868 23.8543 4.03125 23.6563Z" fill="#36474F"/>
<path fill-rule="evenodd" clip-rule="evenodd" d="M18.1562 27.6563C17.7123 26.5121 17.3165 25.3454 16.9688 24.1563C18.068 23.909 18.8492 24.3049 19.3125 25.3438C19.5243 26.4202 19.1389 27.1911 18.1562 27.6563Z" fill="#D72061"/>
<path fill-rule="evenodd" clip-rule="evenodd" d="M4.09375 26.5313C6.84382 26.5208 9.59382 26.5313 12.3438 26.5625C12.5898 26.7818 12.5898 26.9901 12.3438 27.1875C9.57294 27.2292 6.80207 27.2292 4.03125 27.1875C3.85696 26.9516 3.87779 26.7328 4.09375 26.5313Z" fill="#3B4C55"/>
<path opacity="0.996" fill-rule="evenodd" clip-rule="evenodd" d="M14.5312 26.5312C15.0289 27.8676 15.4976 29.2218 15.9375 30.5938C16.0595 30.8913 16.2366 31.1413 16.4688 31.3438C11.8854 31.3542 7.30206 31.3438 2.71875 31.3125C1.62402 31.0615 0.894856 30.4053 0.53125 29.3438C5.72911 31.0093 10.3958 30.0718 14.5312 26.5312Z" fill="#B8CAD8"/>
</g>
<defs>
<clipPath id="clip0_364_5955">
<rect width="32" height="32" fill="white"/>
</clipPath>
</defs>
</svg>
