<svg width="32" height="32" viewBox="0 0 32 32" fill="none" xmlns="http://www.w3.org/2000/svg">
<g clip-path="url(#clip0_364_6012)">
<path opacity="0.975" fill-rule="evenodd" clip-rule="evenodd" d="M24.4687 -0.03125C24.9062 -0.03125 25.3437 -0.03125 25.7812 -0.03125C25.7812 -0.0104167 25.7812 0.0104167 25.7812 0.03125C25.419 0.138217 25.0857 0.304883 24.7812 0.53125C24.2563 0.743638 23.9022 1.11864 23.7187 1.65625C23.5173 1.93457 23.382 2.24707 23.3125 2.59375C23.273 3.1366 23.2833 3.67827 23.3437 4.21875C22.867 4.54756 22.6587 5.00589 22.7187 5.59375C21.835 4.62443 21.5745 3.49943 21.9375 2.21875C22.3825 1.01297 23.2262 0.262976 24.4687 -0.03125Z" fill="#6E60B8"/>
<path opacity="0.991" fill-rule="evenodd" clip-rule="evenodd" d="M25.7813 0.03125C27.0653 0.283947 27.9091 1.03395 28.3125 2.28125C28.6497 3.53627 28.3893 4.64044 27.5313 5.59375C27.5606 4.84263 27.2273 4.33221 26.5313 4.0625C26.0317 4.03127 25.5317 4.02085 25.0313 4.03125C24.5725 4.02086 24.1141 4.03127 23.6563 4.0625C23.5505 4.11541 23.4463 4.16749 23.3438 4.21875C23.2834 3.67827 23.273 3.1366 23.3125 2.59375C23.382 2.24707 23.5174 1.93457 23.7188 1.65625C23.803 2.95009 24.4697 3.45009 25.7188 3.15625C26.4469 2.68296 26.6448 2.03713 26.3125 1.21875C26.1793 0.970619 25.9814 0.803956 25.7188 0.71875C25.6349 0.637937 25.5307 0.585851 25.4063 0.5625C25.199 0.531354 24.9906 0.520937 24.7813 0.53125C25.0858 0.304883 25.4191 0.138217 25.7813 0.03125Z" fill="#8479C1"/>
<path fill-rule="evenodd" clip-rule="evenodd" d="M24.7812 0.531253C24.9906 0.52094 25.1989 0.531357 25.4062 0.562503C25.5307 0.585854 25.6349 0.63794 25.7188 0.718753C25.1249 1.07386 24.9062 1.5947 25.0625 2.28125C25.1767 2.65533 25.3955 2.947 25.7188 3.15625C24.4697 3.4501 23.803 2.9501 23.7188 1.65625C23.9023 1.11864 24.2564 0.74364 24.7812 0.531253Z" fill="#FDB0A1"/>
<path fill-rule="evenodd" clip-rule="evenodd" d="M25.7188 0.71875C25.9814 0.803956 26.1793 0.970619 26.3125 1.21875C26.6448 2.03713 26.4469 2.68296 25.7188 3.15625C25.3955 2.947 25.1768 2.65533 25.0625 2.28125C24.9062 1.59469 25.125 1.07386 25.7188 0.71875Z" fill="#FDCDBD"/>
<path fill-rule="evenodd" clip-rule="evenodd" d="M25.0312 4.03125C24.3937 4.32692 24.0916 4.82692 24.125 5.53125C24.5616 6.04683 25.1137 6.38019 25.7812 6.53125C24.603 6.77263 23.5822 6.46013 22.7187 5.59375C22.6587 5.0059 22.8671 4.54757 23.3437 4.21875C23.4462 4.1675 23.5504 4.11542 23.6562 4.0625C24.1141 4.03127 24.5724 4.02086 25.0312 4.03125Z" fill="#08C63C"/>
<path opacity="0.995" fill-rule="evenodd" clip-rule="evenodd" d="M25.0312 4.03126C25.5317 4.02086 26.0317 4.03127 26.5312 4.06251C27.2273 4.33221 27.5606 4.84263 27.5312 5.59376C27.0581 6.10129 26.4748 6.41382 25.7812 6.53126C25.1137 6.38019 24.5616 6.04684 24.125 5.53126C24.0916 4.82692 24.3937 4.32692 25.0312 4.03126Z" fill="#72D478"/>
<path opacity="0.977" fill-rule="evenodd" clip-rule="evenodd" d="M16.5938 4.65626C16.2554 4.77335 15.9429 4.94001 15.6562 5.15626C15.1259 5.32887 14.7717 5.68304 14.5938 6.21876C14.0916 7.03307 13.9666 7.90807 14.2188 8.84376C13.747 9.15013 13.5178 9.58763 13.5312 10.1563C12.9281 9.53613 12.6156 8.78613 12.5938 7.90626C12.7299 6.15571 13.6466 5.06196 15.3438 4.62501C15.7716 4.57372 16.1883 4.58413 16.5938 4.65626Z" fill="#6E60B7"/>
<path opacity="0.99" fill-rule="evenodd" clip-rule="evenodd" d="M16.5938 4.65625C18.295 5.06644 19.2116 6.14978 19.3438 7.90625C19.3241 8.82137 18.9908 9.59219 18.3438 10.2188C18.414 9.41075 18.0599 8.90037 17.2813 8.6875C16.8234 8.65625 16.3651 8.64587 15.9063 8.65625C15.4475 8.64587 14.9891 8.65625 14.5313 8.6875C14.4255 8.74044 14.3213 8.7925 14.2188 8.84375C13.9666 7.90806 14.0916 7.03306 14.5938 6.21875C14.5956 7.55487 15.2415 8.07575 16.5313 7.78125C17.2152 7.38663 17.4548 6.80325 17.25 6.03125C17.0836 5.70864 16.844 5.45864 16.5313 5.28125C16.2506 5.18054 15.959 5.13888 15.6563 5.15625C15.943 4.94001 16.2555 4.77334 16.5938 4.65625Z" fill="#8579C1"/>
<path fill-rule="evenodd" clip-rule="evenodd" d="M15.6562 5.15625C15.9589 5.13888 16.2506 5.18055 16.5312 5.28125C16.3909 5.45316 16.2347 5.61983 16.0625 5.78125C15.6884 6.57613 15.8446 7.24282 16.5312 7.78125C15.2415 8.07575 14.5956 7.55488 14.5938 6.21875C14.7718 5.68304 15.1259 5.32887 15.6562 5.15625Z" fill="#FDB0A0"/>
<path fill-rule="evenodd" clip-rule="evenodd" d="M16.5312 5.28125C16.844 5.45864 17.0836 5.70864 17.25 6.03125C17.4548 6.80325 17.2152 7.38663 16.5312 7.78125C15.8446 7.24281 15.6884 6.57613 16.0625 5.78125C16.2347 5.61983 16.3909 5.45316 16.5312 5.28125Z" fill="#FDCCBD"/>
<path fill-rule="evenodd" clip-rule="evenodd" d="M15.9063 8.65625C15.2178 8.94956 14.9157 9.47037 15 10.2187C15.441 10.7156 15.9931 11.0281 16.6563 11.1562C15.4323 11.415 14.3907 11.0817 13.5313 10.1562C13.5178 9.58762 13.747 9.15012 14.2188 8.84375C14.3213 8.7925 14.4254 8.74044 14.5313 8.6875C14.9891 8.65625 15.4474 8.64587 15.9063 8.65625Z" fill="#FAC705"/>
<path opacity="0.994" fill-rule="evenodd" clip-rule="evenodd" d="M15.9063 8.65625C16.3651 8.64587 16.8234 8.65625 17.2813 8.6875C18.0599 8.90037 18.414 9.41075 18.3438 10.2187C17.9031 10.7414 17.3406 11.0539 16.6563 11.1562C15.9931 11.0281 15.441 10.7156 15 10.2187C14.9157 9.47037 15.2178 8.94956 15.9063 8.65625Z" fill="#FEDF2F"/>
<path fill-rule="evenodd" clip-rule="evenodd" d="M25.3438 8.96874C25.1052 9.02837 24.9385 9.17424 24.8438 9.40624C24.7812 16.5832 24.7604 23.7707 24.7812 30.9687C24.0521 30.9687 23.3229 30.9687 22.5938 30.9687C22.5938 23.7812 22.5938 16.5937 22.5938 9.40624C22.6424 9.14056 22.809 9.00518 23.0938 8.99999C23.8434 8.96874 24.5934 8.95831 25.3438 8.96874Z" fill="#00C63A"/>
<path opacity="0.984" fill-rule="evenodd" clip-rule="evenodd" d="M25.3438 8.96875C25.9483 8.95837 26.5524 8.96875 27.1562 9C27.4337 9.00812 27.6107 9.1435 27.6875 9.40625C27.7188 16.5937 27.7292 23.7812 27.7188 30.9687C26.7714 31.031 25.8131 31.0519 24.8438 31.0312C24.8438 23.8229 24.8438 16.6146 24.8438 9.40625C24.9385 9.17425 25.1052 9.02837 25.3438 8.96875Z" fill="#73D578"/>
<path opacity="0.975" fill-rule="evenodd" clip-rule="evenodd" d="M7.46872 9.28125C7.20235 9.388 6.93147 9.50256 6.65622 9.625C6.55853 9.67244 6.49603 9.74537 6.46872 9.84375C5.97442 9.98387 5.64109 10.2964 5.46872 10.7812C4.96238 11.5972 4.83738 12.4722 5.09372 13.4062C4.61502 13.7597 4.38585 14.2388 4.40622 14.8437C3.37553 13.6579 3.19845 12.3454 3.87497 10.9062C4.71842 9.57294 5.91633 9.03131 7.46872 9.28125Z" fill="#6E60B8"/>
<path opacity="0.991" fill-rule="evenodd" clip-rule="evenodd" d="M7.46877 9.28125C8.72621 9.52806 9.56996 10.2572 10 11.4688C10.363 12.7494 10.1025 13.8744 9.21877 14.8438C9.23546 14.0384 8.86046 13.528 8.09377 13.3125C7.6359 13.2812 7.17758 13.2709 6.71877 13.2812C6.16831 13.2498 5.62664 13.2915 5.09377 13.4062C4.83743 12.4722 4.96243 11.5972 5.46877 10.7812C5.34215 11.7993 5.77965 12.3826 6.78127 12.5312C7.00183 12.5374 7.21021 12.4958 7.40627 12.4062C8.15027 11.9342 8.34821 11.2884 8.00002 10.4688C7.86683 10.2206 7.6689 10.0539 7.40627 9.96875C7.11752 9.7815 6.80502 9.73981 6.46877 9.84375C6.49608 9.74538 6.55858 9.67244 6.65627 9.625C6.93152 9.50256 7.2024 9.388 7.46877 9.28125Z" fill="#8579C1"/>
<path fill-rule="evenodd" clip-rule="evenodd" d="M22.5937 9.40625C22.5937 16.5938 22.5937 23.7812 22.5937 30.9688C23.3229 30.9688 24.0521 30.9688 24.7812 30.9688C24.7604 23.7708 24.7812 16.5833 24.8437 9.40625C24.8437 16.6146 24.8437 23.8229 24.8437 31.0312C24.0618 31.0518 23.2909 31.0309 22.5312 30.9688C22.5104 23.7708 22.5312 16.5833 22.5937 9.40625Z" fill="#36CD58"/>
<path fill-rule="evenodd" clip-rule="evenodd" d="M7.40627 9.96876C6.67683 10.4866 6.52058 11.1533 6.93752 11.9688C7.08727 12.1292 7.24352 12.275 7.40627 12.4063C7.2102 12.4958 7.00183 12.5374 6.78127 12.5313C5.77964 12.3826 5.34214 11.7993 5.46877 10.7813C5.64113 10.2964 5.97447 9.98388 6.46877 9.84376C6.80502 9.73982 7.11752 9.78151 7.40627 9.96876Z" fill="#FDB0A0"/>
<path fill-rule="evenodd" clip-rule="evenodd" d="M7.40623 9.96875C7.66886 10.0539 7.8668 10.2206 7.99998 10.4688C8.34817 11.2884 8.15023 11.9342 7.40623 12.4062C7.24348 12.275 7.08723 12.1292 6.93748 11.9688C6.52055 11.1533 6.6768 10.4866 7.40623 9.96875Z" fill="#FECDBD"/>
<path fill-rule="evenodd" clip-rule="evenodd" d="M6.71878 13.2813C6.09405 13.5837 5.79197 14.0837 5.81253 14.7813C6.04808 15.0714 6.32934 15.311 6.65628 15.5C6.93334 15.6182 7.20415 15.7328 7.46878 15.8438C6.27471 16.0196 5.25389 15.6863 4.40628 14.8438C4.38591 14.2388 4.61508 13.7597 5.09378 13.4063C5.62665 13.2915 6.16831 13.2498 6.71878 13.2813Z" fill="#FE0664"/>
<path opacity="0.992" fill-rule="evenodd" clip-rule="evenodd" d="M6.71876 13.2812C7.17757 13.2709 7.63588 13.2812 8.09376 13.3125C8.86044 13.528 9.23544 14.0384 9.21876 14.8437C8.74407 15.3586 8.16076 15.6919 7.46876 15.8437C7.20413 15.7327 6.93332 15.6182 6.65626 15.5C6.32932 15.311 6.04806 15.0714 5.81251 14.7812C5.79195 14.0837 6.09403 13.5837 6.71876 13.2812Z" fill="#FE5495"/>
<path fill-rule="evenodd" clip-rule="evenodd" d="M16.0313 13.6562C15.9102 13.7457 15.7956 13.8499 15.6875 13.9687C15.6563 19.6562 15.6458 25.3437 15.6563 31.0312C14.8951 31.0517 14.1451 31.0309 13.4063 30.9687C13.3958 25.3021 13.4063 19.6354 13.4375 13.9687C13.4866 13.8571 13.5594 13.7634 13.6563 13.6875C14.4476 13.6562 15.2393 13.6458 16.0313 13.6562Z" fill="#FBC700"/>
<path opacity="0.996" fill-rule="evenodd" clip-rule="evenodd" d="M16.0313 13.6562C16.7816 13.6458 17.5316 13.6562 18.2813 13.6875C18.3781 13.7634 18.4509 13.8571 18.5 13.9687C18.5313 19.6354 18.5417 25.3021 18.5313 30.9687C17.5839 31.031 16.6256 31.0519 15.6563 31.0312C15.6458 25.3437 15.6563 19.6562 15.6875 13.9687C15.7956 13.8499 15.9102 13.7457 16.0313 13.6562Z" fill="#FEDF2F"/>
<path fill-rule="evenodd" clip-rule="evenodd" d="M6.84375 18.2812C6.66937 18.3729 6.56525 18.5187 6.53125 18.7187C6.46881 22.7916 6.448 26.8749 6.46875 30.9687C5.73958 30.9687 5.01042 30.9687 4.28125 30.9687C4.28125 26.8646 4.28125 22.7604 4.28125 18.6562C4.29616 18.4907 4.37949 18.3761 4.53125 18.3125C5.3018 18.2812 6.07264 18.2708 6.84375 18.2812Z" fill="#FF0263"/>
<path opacity="0.988" fill-rule="evenodd" clip-rule="evenodd" d="M6.84375 18.2812C7.59406 18.2708 8.34406 18.2812 9.09375 18.3125C9.23844 18.3818 9.33219 18.4964 9.375 18.6562C9.40625 22.7604 9.41669 26.8645 9.40625 30.9687C8.45887 31.031 7.50056 31.0519 6.53125 31.0312C6.53125 26.9271 6.53125 22.8229 6.53125 18.7187C6.56525 18.5187 6.66938 18.3729 6.84375 18.2812Z" fill="#FE5595"/>
<path opacity="0.427" fill-rule="evenodd" clip-rule="evenodd" d="M4.28122 18.6562C4.28122 22.7604 4.28122 26.8646 4.28122 30.9688C5.01039 30.9688 5.73955 30.9688 6.46872 30.9688C6.44797 26.8749 6.46878 22.7916 6.53122 18.7188C6.53122 22.8229 6.53122 26.9271 6.53122 31.0312C5.74926 31.0518 4.97843 31.0309 4.21872 30.9688C4.19794 26.8541 4.21878 22.7499 4.28122 18.6562Z" fill="#FE2477"/>
<path opacity="0.978" fill-rule="evenodd" clip-rule="evenodd" d="M4.21873 30.9687C4.97844 31.0309 5.74927 31.0518 6.53123 31.0312C7.50054 31.0519 8.45886 31.031 9.40623 30.9687C10.7395 30.9687 12.0729 30.9687 13.4062 30.9687C14.1451 31.0309 14.8951 31.0517 15.6562 31.0312C16.6255 31.0519 17.5839 31.031 18.5312 30.9687C19.8645 30.9687 21.1979 30.9687 22.5312 30.9687C23.2909 31.0309 24.0618 31.0518 24.8437 31.0312C25.813 31.0519 26.7714 31.031 27.7187 30.9687C28.141 30.9452 28.5577 30.9764 28.9687 31.0625C29.2327 31.3897 29.2119 31.6918 28.9062 31.9687C20.2812 31.9687 11.6562 31.9687 3.03123 31.9687C2.72557 31.6918 2.70474 31.3897 2.96873 31.0625C3.37976 30.9764 3.79642 30.9452 4.21873 30.9687Z" fill="#DBECFF"/>
</g>
<defs>
<clipPath id="clip0_364_6012">
<rect width="32" height="32" fill="white"/>
</clipPath>
</defs>
</svg>
